<svg width="41" height="45" viewBox="0 0 41 45" fill="none" xmlns="http://www.w3.org/2000/svg">
<g clip-path="url(#clip0_6_250)">
<path d="M10.5 14.5001C10.5 13.4001 11.4 12.5001 12.5 12.5001H28.5C29.0304 12.5001 29.5391 12.7108 29.9142 13.0858C30.2893 13.4609 30.5 13.9696 30.5 14.5001V16.5001H10.5V14.5001ZM11.5 17.5001H29.5V30.5001C29.5 31.0305 29.2893 31.5392 28.9142 31.9143C28.5391 32.2893 28.0304 32.5001 27.5 32.5001H13.5C12.9696 32.5001 12.4609 32.2893 12.0858 31.9143C11.7107 31.5392 11.5 31.0305 11.5 30.5001V17.5001ZM17.5 19.5001V21.5001H23.5V19.5001H17.5Z" fill="#C7C7CC"/>
</g>
<defs>
<clipPath id="clip0_6_250">
<rect width="20" height="20" fill="white" transform="translate(10.5 12.5001)"/>
</clipPath>
</defs>
</svg>