<svg width="19" height="18" viewBox="0 0 19 18" fill="none" xmlns="http://www.w3.org/2000/svg">
<path d="M9.34082 0C11.6324 9.95483e-05 13.7205 0.882019 15.291 2.32812L12.6797 5.06543C12.69 5.07658 12.7012 5.08787 12.7119 5.09961C11.8156 4.29359 10.6349 3.80381 9.34082 3.80371C6.53608 3.80371 4.26182 6.10259 4.26172 8.93848C4.26172 11.7744 6.53602 14.0732 9.34082 14.0732C11.4806 14.0731 13.3099 12.7346 14.0576 10.8408H9.34082V7.22656H13.0732V7.26855H18.0234C18.1246 7.80972 18.1807 8.36756 18.1807 8.93848C18.1807 13.875 14.2231 17.8767 9.34082 17.877C4.45838 17.877 0.5 13.8752 0.5 8.93848C0.500097 4.00188 4.45844 0 9.34082 0Z" fill="#E9B71D"/>
<path d="M13.0289 7.31085H17.9791C18.0802 7.85188 18.1363 8.41001 18.1363 8.98077C18.1362 11.58 17.0375 13.9189 15.2858 15.5521C15.1795 15.6498 15.0715 15.7457 14.9606 15.8382L12.3854 13.3587L12.1363 13.2347C12.3785 13.0689 12.6052 12.8825 12.815 12.678C13.3512 12.1682 13.7797 11.544 14.0572 10.8411H9.34044V7.26886H13.0289V7.31085Z" fill="#4385F4"/>
<path fill-rule="evenodd" clip-rule="evenodd" d="M15.2684 2.32812C13.6979 0.882017 11.6098 9.95484e-05 9.31825 0C5.91443 0 2.95973 1.94506 1.48228 4.79589L4.50474 7.26882L4.51411 7.26783C5.1999 5.25213 7.09196 3.80371 9.31825 3.80371C10.6124 3.80381 11.793 4.29358 12.6893 5.09961C12.6836 5.09333 12.6777 5.08719 12.6719 5.08113C12.6669 5.07584 12.6619 5.07062 12.6571 5.06543L15.2684 2.32812Z" fill="#DA4948"/>
<path d="M4.53875 10.5754C5.18804 12.641 7.0961 14.1425 9.35528 14.1537C10.6494 14.16 11.8305 13.6741 12.7307 12.8724L12.7844 12.8726C12.5985 13.0388 12.401 13.1922 12.1924 13.3297L12.4486 13.4599L14.9863 15.9274C13.4495 17.2038 11.4808 17.9678 9.33666 17.9574C5.91871 17.9405 2.96296 15.9644 1.50591 13.087L1.69916 12.9102C2.4754 12.2056 4.11025 10.7706 4.53875 10.5754ZM18.072 7.39748L17.2508 7.39346L17.2508 7.3876L18.0711 7.39161C18.0714 7.39351 18.0717 7.39558 18.072 7.39748Z" fill="#36A563"/>
</svg>
