<svg width="41" height="45" viewBox="0 0 41 45" fill="none" xmlns="http://www.w3.org/2000/svg">
<g clip-path="url(#clip0_6_253)">
<path fill-rule="evenodd" clip-rule="evenodd" d="M11 28.4756V22.5852C11 21.9966 11 21.7022 11.0731 21.4284C11.1379 21.1857 11.245 20.956 11.3889 20.7485C11.5513 20.5143 11.777 20.3201 12.2294 19.9325L17.6312 15.305C18.4698 14.5865 18.8892 14.2272 19.3615 14.0905C19.7779 13.9699 20.2218 13.9699 20.6383 14.0905C21.1109 14.2273 21.5309 14.5869 22.3708 15.3065L27.7709 19.9325C28.2232 20.32 28.449 20.5143 28.6114 20.7485C28.7553 20.956 28.8616 21.1857 28.9264 21.4284C28.9995 21.7022 29 21.9966 29 22.5852V28.4794C29 29.7107 29 30.3271 28.755 30.7978C28.5393 31.2123 28.1942 31.549 27.7708 31.7602C27.29 32.0001 26.6611 32.0001 25.4035 32.0001H23V28.0001C23 26.3432 21.6569 25.0001 20 25.0001C18.3431 25.0001 17 26.3432 17 28.0001V32.0001H14.5965C13.3389 32.0001 12.7091 32.0001 12.2283 31.7602C11.8049 31.549 11.461 31.2123 11.2452 30.7978C11 30.3266 11 29.7093 11 28.4756Z" fill="#1A2B4C"/>
<path d="M11.0731 21.4284L12.0393 21.6862L12.0393 21.6862L11.0731 21.4284ZM11.3889 20.7485L12.2107 21.3182L12.2107 21.3182L11.3889 20.7485ZM12.2294 19.9325L11.5788 19.1731L11.5788 19.1731L12.2294 19.9325ZM17.6312 15.305L16.9806 14.5455L16.9806 14.5455L17.6312 15.305ZM19.3615 14.0905L19.6396 15.051L19.6396 15.051L19.3615 14.0905ZM20.6383 14.0905L20.9164 13.1299L20.9164 13.1299L20.6383 14.0905ZM22.3708 15.3065L21.7203 16.0659L21.7203 16.0659L22.3708 15.3065ZM27.7709 19.9325L28.4214 19.1731L28.4214 19.1731L27.7709 19.9325ZM28.6114 20.7485L29.4332 20.1787L29.4332 20.1787L28.6114 20.7485ZM28.9264 21.4284L29.8926 21.1705L29.8926 21.1705L28.9264 21.4284ZM28.755 30.7978L29.6421 31.2595L29.6421 31.2595L28.755 30.7978ZM27.7708 31.7602L28.2172 32.655L28.2172 32.655L27.7708 31.7602ZM23 32.0001H22C22 32.5523 22.4477 33.0001 23 33.0001V32.0001ZM17 32.0001V33.0001C17.5523 33.0001 18 32.5523 18 32.0001H17ZM12.2283 31.7602L11.7819 32.655L11.7819 32.655L12.2283 31.7602ZM11.2452 30.7978L10.3582 31.2595L10.3582 31.2595L11.2452 30.7978ZM11 22.5852H10V28.4756H11H12V22.5852H11ZM11.0731 21.4284L10.1069 21.1705C9.9921 21.6007 10 22.05 10 22.5852H11H12C12 21.9433 12.0079 21.8038 12.0393 21.6862L11.0731 21.4284ZM11.3889 20.7485L10.5671 20.1787C10.3588 20.4791 10.2021 20.814 10.1069 21.1705L11.0731 21.4284L12.0393 21.6862C12.0737 21.5573 12.1312 21.4329 12.2107 21.3182L11.3889 20.7485ZM12.2294 19.9325L11.5788 19.1731C11.1651 19.5275 10.8198 19.8142 10.5671 20.1787L11.3889 20.7485L12.2107 21.3182C12.2828 21.2143 12.3888 21.1126 12.88 20.6919L12.2294 19.9325ZM17.6312 15.305L16.9806 14.5455L11.5788 19.1731L12.2294 19.9325L12.88 20.6919L18.2817 16.0644L17.6312 15.305ZM19.3615 14.0905L19.0834 13.1299C18.6907 13.2436 18.3601 13.4405 18.043 13.6727C17.7363 13.8972 17.3883 14.1962 16.9806 14.5455L17.6312 15.305L18.2817 16.0644C18.7126 15.6953 18.9937 15.4553 19.2244 15.2865C19.4447 15.1252 19.56 15.0741 19.6396 15.051L19.3615 14.0905ZM20.6383 14.0905L20.9164 13.1299C20.3183 12.9568 19.6815 12.9568 19.0834 13.1299L19.3615 14.0905L19.6396 15.051C19.8744 14.9831 20.1254 14.9831 20.3602 15.051L20.6383 14.0905ZM22.3708 15.3065L23.0214 14.547C22.613 14.1971 22.2646 13.8978 21.9575 13.673C21.64 13.4407 21.3092 13.2437 20.9164 13.1299L20.6383 14.0905L20.3602 15.051C20.44 15.0742 20.5555 15.1254 20.7762 15.2869C21.0072 15.456 21.2888 15.6963 21.7203 16.0659L22.3708 15.3065ZM27.7709 19.9325L28.4214 19.1731L23.0214 14.547L22.3708 15.3065L21.7203 16.0659L27.1203 20.6919L27.7709 19.9325ZM28.6114 20.7485L29.4332 20.1787C29.1804 19.8142 28.835 19.5273 28.4214 19.1731L27.7709 19.9325L27.1203 20.6919C27.6115 21.1128 27.7176 21.2144 27.7896 21.3182L28.6114 20.7485ZM28.9264 21.4284L29.8926 21.1705C29.7979 20.8159 29.6426 20.4808 29.4332 20.1787L28.6114 20.7485L27.7896 21.3182C27.8679 21.4312 27.9253 21.5554 27.9602 21.6862L28.9264 21.4284ZM29 22.5852H30C30 22.0485 30.0073 21.6003 29.8926 21.1705L28.9264 21.4284L27.9602 21.6862C27.9917 21.8041 28 21.9448 28 22.5852H29ZM29 28.4794H30V22.5852H29H28V28.4794H29ZM28.755 30.7978L29.6421 31.2595C29.8511 30.8578 29.93 30.4374 29.9659 30.007C30.0008 29.5889 30 29.0782 30 28.4794H29H28C28 29.1119 27.9992 29.525 27.9728 29.8406C27.9475 30.1439 27.9039 30.2671 27.8679 30.3362L28.755 30.7978ZM27.7708 31.7602L28.2172 32.655C28.8258 32.3514 29.327 31.8649 29.6421 31.2595L28.755 30.7978L27.8679 30.3362C27.7516 30.5597 27.5626 30.7466 27.3244 30.8654L27.7708 31.7602ZM25.4035 32.0001V33.0001C26.0161 33.0001 26.5346 33.0008 26.9583 32.9669C27.3931 32.9321 27.8143 32.856 28.2172 32.655L27.7708 31.7602L27.3244 30.8654C27.2465 30.9042 27.1129 30.9481 26.7987 30.9733C26.4733 30.9993 26.0485 31.0001 25.4035 31.0001V32.0001ZM23 32.0001V33.0001H25.4035V32.0001V31.0001H23V32.0001ZM23 28.0001H22V32.0001H23H24V28.0001H23ZM20 25.0001V26.0001C21.1046 26.0001 22 26.8955 22 28.0001H23H24C24 25.7909 22.2091 24.0001 20 24.0001V25.0001ZM17 28.0001H18C18 26.8955 18.8954 26.0001 20 26.0001V25.0001V24.0001C17.7909 24.0001 16 25.7909 16 28.0001H17ZM17 32.0001H18V28.0001H17H16V32.0001H17ZM14.5965 32.0001V33.0001H17V32.0001V31.0001H14.5965V32.0001ZM12.2283 31.7602L11.7819 32.655C12.1849 32.8561 12.6064 32.9321 13.0413 32.9669C13.4652 33.0008 13.9838 33.0001 14.5965 33.0001V32.0001V31.0001C13.9515 31.0001 13.5265 30.9993 13.2008 30.9733C12.8862 30.9481 12.7525 30.9042 12.6747 30.8654L12.2283 31.7602ZM11.2452 30.7978L10.3582 31.2595C10.6727 31.8638 11.1722 32.3509 11.7819 32.655L12.2283 31.7602L12.6747 30.8654C12.4376 30.7471 12.2492 30.5608 12.1323 30.3362L11.2452 30.7978ZM11 28.4756H10C10 29.0756 9.99919 29.5871 10.0341 30.0058C10.0701 30.4367 10.149 30.8575 10.3582 31.2595L11.2452 30.7978L12.1323 30.3362C12.0963 30.2669 12.0526 30.1435 12.0272 29.8395C12.0008 29.5233 12 29.1093 12 28.4756H11Z" fill="#1A2B4C"/>
</g>
<defs>
<clipPath id="clip0_6_253">
<rect width="24" height="24" fill="white" transform="translate(8.5 10.5001)"/>
</clipPath>
</defs>
</svg>
