<svg width="123" height="42" viewBox="0 0 123 42" fill="none" xmlns="http://www.w3.org/2000/svg">
<path d="M122.053 29.592V38.472L96.9006 41.256V2.47196L105.445 0.887965V2.51996L113.461 0.887965V2.51996L121.765 0.839966V8.80797L107.701 10.392V16.296L121.237 14.856V23.496L107.701 25.032V31.128L122.053 29.592Z" fill="#2C2C2F"/>
<path d="M74.7475 15.576L81.6594 14.76V2.47199L92.4594 0.743988V15.672L82.7635 16.728V22.296L92.3155 21.192V40.056L81.5154 41.256V24.792L74.7475 25.608V40.056L63.9474 41.256V2.47199L74.7475 0.743988V15.576Z" fill="#2C2C2F"/>
<path d="M28.9787 2.47199L39.7787 0.743988V32.376L47.6987 31.512V2.47199L58.4987 0.743988V35.736L50.8667 36.552V39.672L36.3707 41.256V37.992L28.9787 38.76V2.47199Z" fill="#2C2C2F"/>
<path d="M26.0994 29.592V38.472L0.947449 41.256V2.47199L11.7474 0.743988V31.128L26.0994 29.592Z" fill="#2C2C2F"/>
</svg>
