<svg width="41" height="45" viewBox="0 0 41 45" fill="none" xmlns="http://www.w3.org/2000/svg">
<path d="M20.5 22.5001C19.125 22.5001 17.9479 22.0105 16.9687 21.0313C15.9896 20.0521 15.5 18.8751 15.5 17.5001C15.5 16.1251 15.9896 14.948 16.9687 13.9688C17.9479 12.9896 19.125 12.5001 20.5 12.5001C21.875 12.5001 23.0521 12.9896 24.0312 13.9688C25.0104 14.948 25.5 16.1251 25.5 17.5001C25.5 18.8751 25.0104 20.0521 24.0312 21.0313C23.0521 22.0105 21.875 22.5001 20.5 22.5001ZM10.5 30.0001V29.0001C10.5 28.2917 10.6825 27.6409 11.0475 27.0476C11.4125 26.4542 11.8967 26.0009 12.5 25.6876C13.7917 25.0417 15.1042 24.5576 16.4375 24.2351C17.7708 23.9126 19.125 23.7509 20.5 23.7501C21.875 23.7492 23.2292 23.9109 24.5625 24.2351C25.8958 24.5592 27.2083 25.0434 28.5 25.6876C29.1042 26.0001 29.5887 26.4534 29.9537 27.0476C30.3187 27.6417 30.5008 28.2926 30.5 29.0001V30.0001C30.5 30.6876 30.2554 31.2763 29.7662 31.7663C29.2771 32.2563 28.6883 32.5009 28 32.5001H13C12.3125 32.5001 11.7242 32.2555 11.235 31.7663C10.7458 31.2771 10.5008 30.6884 10.5 30.0001Z" fill="#C7C7CC"/>
</svg>
