<svg width="41" height="45" viewBox="0 0 41 45" fill="none" xmlns="http://www.w3.org/2000/svg">
<path d="M23.5 13.5001H13.5C12.39 13.5001 11.5 14.3901 11.5 15.5001V21.3201C12.7261 20.1409 14.3653 19.4889 16.0663 19.5039C17.7673 19.5188 19.3948 20.1995 20.6 21.4001C21.8152 22.6226 22.4973 24.2763 22.4973 26.0001C22.4973 27.7238 21.8152 29.3775 20.6 30.6001C20.24 30.9501 19.85 31.2401 19.44 31.5001H27.5C28.61 31.5001 29.5 30.6101 29.5 29.5001V19.5001L23.5 13.5001ZM22.5 20.5001V15.0001L28 20.5001H22.5ZM16 21.5001C13.5 21.5001 11.5 23.5001 11.5 26.0001C11.5 26.8801 11.75 27.7101 12.19 28.4001L9.10999 31.5001L10.5 32.8901L13.62 29.8201C14.31 30.2501 15.13 30.5001 16 30.5001C18.5 30.5001 20.5 28.5001 20.5 26.0001C20.5 23.5001 18.5 21.5001 16 21.5001ZM16 28.5001C15.3369 28.5001 14.7011 28.2367 14.2322 27.7678C13.7634 27.299 13.5 26.6631 13.5 26.0001C13.5 25.337 13.7634 24.7011 14.2322 24.2323C14.7011 23.7635 15.3369 23.5001 16 23.5001C16.663 23.5001 17.2989 23.7635 17.7678 24.2323C18.2366 24.7011 18.5 25.337 18.5 26.0001C18.5 26.6631 18.2366 27.299 17.7678 27.7678C17.2989 28.2367 16.663 28.5001 16 28.5001Z" fill="#C7C7CC"/>
</svg>
